<?xml version="1.0" standalone="no"?><!DOCTYPE svg PUBLIC "-//W3C//DTD SVG 1.1//EN" "http://www.w3.org/Graphics/SVG/1.1/DTD/svg11.dtd"><svg t="1498477474894" class="icon" style="" viewBox="0 0 1024 1024" version="1.1" xmlns="http://www.w3.org/2000/svg" p-id="1077" xmlns:xlink="http://www.w3.org/1999/xlink" width="200" height="200"><defs><style type="text/css"></style></defs><path d="M896 192v632.95a7.05 7.05 0 0 1-7.05 7.05h-753.9a7.05 7.05 0 0 1-7.05-7.05v-625.9a7.05 7.05 0 0 1 7.05-7.05H896M64 153.51v717A25.51 25.51 0 0 0 89.51 896h845A25.51 25.51 0 0 0 960 870.49v-717A25.51 25.51 0 0 0 934.49 128h-845A25.51 25.51 0 0 0 64 153.51z" fill="#2c2c2c" p-id="1078"></path><path d="M214.72 677.08l-7-10.16a25.82 25.82 0 0 1 6.47-35.92l213.35-147.9a7.66 7.66 0 0 0 0-12.6L214.19 322.61a25.82 25.82 0 0 1-6.51-35.93l7-10.16a25.82 25.82 0 0 1 35.97-6.52l271.42 188.15a22.69 22.69 0 0 1 0 37.3L250.65 683.59a25.82 25.82 0 0 1-35.93-6.51z" fill="#2c2c2c" p-id="1079"></path><path d="M512 640l320 0 0 64-320 0 0-64Z" fill="#2c2c2c" p-id="1080"></path></svg>